<?xml version="1.0" encoding="UTF-8"?>
<svg id="Layer_2" data-name="Layer 2" xmlns="http://www.w3.org/2000/svg" viewBox="0 0 30 30">
  <defs>
    <style>
      .cls-1 {
        fill: #1e84b5;
      }

      .cls-2 {
        fill: #0e384c;
      }
    </style>
  </defs>
  <g id="Layer_1-2" data-name="Layer 1">
    <g>
      <path class="cls-1" d="M26.97,0H3.03C1.35,0,0,1.35,0,3.03h0v23.95c0,1.67,1.35,3.03,3.03,3.03h23.95c1.67,0,3.03-1.35,3.03-3.03h0V3.02C30,1.35,28.64,0,26.97,0ZM28.93,26.97c0,1.08-.87,1.95-1.95,1.95H3.03c-1.08,0-1.95-.87-1.95-1.95V3.02c0-1.08.87-1.95,1.95-1.95h23.95c1.08,0,1.95.87,1.95,1.95v23.95Z"/>
      <path class="cls-2" d="M9.29,3.02h-3.94c-1.48,0-2.68,1.2-2.68,2.68v18.61c0,1.48,1.2,2.68,2.68,2.68h3.94c1.48,0,2.68-1.2,2.68-2.68V5.7c0-1.48-1.2-2.68-2.68-2.68ZM10.89,24.3c0,.89-.72,1.6-1.6,1.61h-3.94c-.89,0-1.6-.72-1.61-1.61V5.7c0-.89.72-1.6,1.61-1.61h3.94c.89,0,1.6.72,1.6,1.61v18.61Z"/>
      <path class="cls-2" d="M26.7,4.57h-12.17c-.3,0-.54.24-.54.54h0v3.16c0,.3.24.54.54.54h12.17c.3,0,.54-.24.54-.54h0v-3.16c0-.3-.24-.54-.54-.54h0ZM26.16,7.73h-11.1v-2.09h11.1v2.09Z"/>
      <path class="cls-2" d="M15.98,11.08c-1.1,0-1.99.89-1.99,1.99s.89,1.99,1.99,1.99,1.99-.89,1.99-1.99h0c0-1.1-.89-1.99-1.99-1.99ZM15.98,13.99c-.51,0-.92-.41-.92-.92s.41-.92.92-.92.92.41.92.92h0c0,.51-.41.92-.92.92Z"/>
      <path class="cls-2" d="M20.61,11.08c-1.1,0-1.99.89-1.99,1.99s.89,1.99,1.99,1.99,1.99-.89,1.99-1.99h0c0-1.1-.89-1.99-1.99-1.99ZM20.61,13.99c-.51,0-.92-.41-.92-.92s.41-.92.92-.92.92.41.92.92h0c0,.51-.41.92-.92.92Z"/>
      <path class="cls-2" d="M25.25,11.08c-1.1,0-1.99.89-1.99,1.99s.89,1.99,1.99,1.99,1.99-.89,1.99-1.99c0-1.1-.89-1.99-1.99-1.99ZM25.25,13.99c-.51,0-.92-.41-.92-.92,0-.51.41-.92.92-.92.51,0,.92.41.92.92,0,.51-.41.92-.92.92Z"/>
      <path class="cls-2" d="M15.98,16.27c-1.1,0-1.99.89-1.99,1.99s.89,1.99,1.99,1.99,1.99-.89,1.99-1.99h0c0-1.1-.89-1.99-1.99-1.99ZM15.98,19.17c-.51,0-.92-.41-.92-.92s.41-.92.92-.92.92.41.92.92h0c0,.51-.41.91-.92.91h0Z"/>
      <path class="cls-2" d="M20.61,16.27c-1.1,0-1.99.89-1.99,1.99s.89,1.99,1.99,1.99,1.99-.89,1.99-1.99h0c0-1.1-.89-1.99-1.99-1.99ZM20.61,19.17c-.51,0-.92-.41-.92-.92s.41-.92.92-.92.92.41.92.92h0c0,.51-.41.91-.92.91h0Z"/>
      <path class="cls-2" d="M25.25,16.27c-1.1,0-1.99.89-1.99,1.99s.89,1.99,1.99,1.99c1.1,0,1.99-.89,1.99-1.99,0-1.1-.89-1.99-1.99-1.99ZM25.25,19.17c-.51,0-.92-.41-.92-.92s.41-.92.92-.92c.51,0,.92.41.92.92,0,.51-.41.91-.92.91h0Z"/>
      <path class="cls-2" d="M15.98,21.45c-1.1,0-1.99.89-1.99,1.99s.89,1.99,1.99,1.99c1.1,0,1.99-.89,1.99-1.99h0c0-1.1-.89-1.99-1.99-1.99ZM15.98,24.36c-.51,0-.92-.41-.92-.92s.41-.92.92-.92.92.41.92.92h0c0,.51-.41.92-.92.92Z"/>
      <path class="cls-2" d="M20.61,21.45c-1.1,0-1.99.89-1.99,1.99s.89,1.99,1.99,1.99c1.1,0,1.99-.89,1.99-1.99h0c0-1.1-.89-1.99-1.99-1.99ZM20.61,24.36c-.51,0-.92-.41-.92-.92s.41-.92.92-.92.92.41.92.92h0c0,.51-.41.92-.92.92Z"/>
      <path class="cls-2" d="M25.25,21.45c-1.1,0-1.99.89-1.99,1.99s.89,1.99,1.99,1.99,1.99-.89,1.99-1.99h0c0-1.1-.89-1.99-1.99-1.99ZM25.25,24.36c-.51,0-.92-.41-.92-.92s.41-.92.92-.92c.51,0,.92.41.92.92,0,.51-.41.92-.92.92Z"/>
    </g>
  </g>
</svg>