<?xml version="1.0" encoding="UTF-8"?>
<svg id="Layer_2" data-name="Layer 2" xmlns="http://www.w3.org/2000/svg" viewBox="0 0 499.78 509.58">
  <defs>
    <style>
      .cls-1 {
        fill: #1e84b5;
      }

      .cls-2 {
        fill: #0e384c;
      }
    </style>
  </defs>
  <g id="Layer_1-2" data-name="Layer 1">
    <g>
      <path class="cls-1" d="M262.26,45.19c-29.03,14.25-64.85,21.72-96.52,11.21-28.64-7.79-73.51-35.85-98.69-14.92-13.58,10.61-22.91,27.08-24.61,43.98-4.91,50.96,48.86,103.7,88.18,131,51.62,35.99,118.25,53.92,158.51,105.33,20.67,25.9,31.92,57.77,35.97,89.97-6.62-14.49-13.96-28.39-22.45-41.17-44.08-70.34-127.8-76.97-194.79-119.13C52.23,216.48-9.4,151.27,1.2,79.68,5.88,50.34,23.72,24.11,49.06,9.12,66.44-1.62,89.8-2.2,108.16,3.87c23.72,7.02,45.01,22,65.57,32.54,27.05,14.43,58.91,13.13,88.54,8.78h0Z"/>
      <path class="cls-1" d="M180.22,86.14c56.08,1.42,110.96-12.76,154.78-46.23,16.48-12.62,33.54-24.32,54.04-30.33,55.56-16.53,91.36,20.97,103.38,72.12,11.01,48.9,7.8,94.57,2.39,141.5-4.03,31.11-9.84,62.55-17.65,92.95-16.28,61.16-40.66,121.97-80.55,172-3.62,4.33-6.86,8.83-11.38,12.56-16.29,14.16-43.5,11.01-55.48-6.91-18.3-27.83-30.12-59.41-39.96-90.9,9.94,16.27,19.98,32.37,30.62,47.79,7.34,10.52,14.78,20.59,23.3,29.98,5.82,7.47,18.3,8.57,24.38,1.14,17.16-24.59,31-54.88,41.75-83.12,17.54-47.33,29.14-96.67,36.65-146.59,7.87-53.83,18.39-133.67-1.59-183.99-16.22-39-51.95-27.73-81.82-11.33-8.14,4.85-16.93,10.03-25.26,14.42,0,0-13.71,6.34-13.71,6.34-45.36,18.37-96.93,22.27-143.88,8.6h0Z"/>
      <path class="cls-2" d="M41.34,272.33c-8.54,7.72-21.81,24.25-7.06,32.03,20.86,10.2,47.4,10.9,70.79,11.47,24.86,1.06,52.28,2.36,77.01,3.93,0,0,.02,1.65.02,1.65-24.65,2.06-52.16,3.85-77,5.39-17.49.87-34.82,2.28-52.56.61-20.39-1.33-47.98-16.03-35.16-40.81,5.32-8.76,13.89-13.56,23.26-15.76,0,0,.71,1.49.71,1.49h0Z"/>
      <path class="cls-2" d="M45.21,335.88c-6.63,6.62-14.09,14.35-10.74,22.78,4.59,6.69,13.91,7.82,22.41,10.21,19.87,4.67,43.34,3.28,63.81,4.74,14.45.79,28.9,1.38,43.36,2.34,0,0,.02,1.38.02,1.38-14.44,1.24-28.89,2.1-43.34,3.16-14.5.9-28.81,1.85-43.47,2.39-15.75-.03-31.36,1.21-45.69-8.43-13.72-9.51-11.22-27.4,2.34-35.41,3.39-2.09,6.93-3.61,10.71-4.4l.59,1.24h0Z"/>
      <path class="cls-2" d="M54.57,391.67c-5.27,5.12-11.75,12.05-8.81,18.61,3.84,5.67,11.91,6.57,18.33,8.42,11.12,3.2,40.25,3.09,52.07,3.81,11.78.63,23.57,1.1,35.37,1.86,0,0,.01,1.1.01,1.1-11.78.99-23.56,1.68-35.35,2.54-11.82.72-23.5,1.48-35.46,1.92-11.59.11-24.37.58-34.9-5.43-13.06-6.92-12.62-22.97-.44-30.21,2.76-1.71,5.63-2.95,8.71-3.61,0,0,.48.99.48.99h0Z"/>
      <path class="cls-2" d="M63.93,439.7c-5.17,4.61-11.75,13-3.87,17.32,6.8,3.49,16.23,4.97,24.26,5.61,18.14.76,36.51,1.29,54.68,2.42,0,0,.01.83.01.83-18.3,1.42-36.43,2.5-54.82,3.36-9.69.05-20.27.53-28.74-5.36-8.52-5.75-6.89-17.3,1.41-22.08,2.12-1.33,4.34-2.3,6.71-2.83l.36.74h0Z"/>
      <path class="cls-2" d="M72.22,479.62c-14.66,13.07,3.73,15.36,14.45,16.39,11.4.38,27.5.95,38.73,1.59,0,0,0,.55,0,.55-6.46.5-12.92.85-19.39,1.28l-19.44.97c-8.25-.09-20.49.67-24.04-9.03-1.58-6.2,4.38-11.16,9.44-12.26,0,0,.24.5.24.5h0Z"/>
    </g>
  </g>
</svg>